<svg xmlns="http://www.w3.org/2000/svg" width="26" height="44" viewBox="0 0 26 44">
    <g fill="none" fill-rule="evenodd">
        <path fill="#CCC" d="M19 42c0 1.104-2.687 2-6 2s-6-.896-6-2 2.687-2 6-2 6 .896 6 2"/>
        <path fill="#eb0a1e" d="M26 13c0 7.18-13 29-13 29S0 20.18 0 13 5.82 0 13 0s13 5.82 13 13"/>
        <path fill="#A60000" d="M26 13c0-7.18-5.82-13-13-13v42s13-21.82 13-29"/>
        <path fill="#FFF" d="M21.5 13.5a8.5 8.5 0 1 1-17.001-.001A8.5 8.5 0 0 1 21.5 13.5"/>
    </g>
</svg>
