<svg xmlns="http://www.w3.org/2000/svg" width="118" height="29" viewBox="0 0 118 29">
	<g fill="none" fill-rule="evenodd">
		<path fill="#EB0A1E" d="M0 29L29.291 29 29.291 0 0 0z"/>
		<g>
			<path fill="#FFF" d="M10.134 12.435c1.02-.407 1.943-2.432 1.943-5.838v-.115c2.847-.386 4.844-1.487 4.928-2.963.649.797 1.022 1.758 1.022 2.872 0 3.216-3.538 5.895-7.893 6.044m-8.66-6.044c0-1.114.374-2.075 1.022-2.872.085 1.476 2.081 2.577 4.929 2.963v.115c0 3.56.912 5.448 1.924 5.838-4.346-.156-7.874-2.833-7.874-6.044m2.222-3.537c.108-.437.762-.945 1.814-1.344C6.65 1.094 7.958.86 9.339.82c-1.02.372-1.636 2.125-1.84 4.2-3.055-.332-4.004-1.35-3.802-2.166M9.75 5.131c-.515 0-.991-.014-1.432-.042.232-1.719.849-2.718 1.433-2.718.584 0 1.2 1 1.432 2.718-.44.028-.917.042-1.433.042m1.529 1.466c0 2.629-.79 3.719-1.528 3.719-.739 0-1.529-1.09-1.529-3.72V6.57c.491.042 1.002.064 1.529.064.526 0 1.037-.022 1.528-.064v.028m4.524-3.743c.203.815-.747 1.833-3.801 2.166-.203-2.075-.819-3.828-1.84-4.2 1.374.04 2.676.272 3.811.683 1.062.401 1.722.912 1.83 1.351M9.751.02C4.252.02.043 2.854.043 6.63c0 3.65 4.102 6.609 9.708 6.609s9.707-2.96 9.707-6.61c0-3.774-4.209-6.609-9.707-6.609" transform="translate(5.021 7.457)"/>
			<path fill="#000" d="M31.011 11.45l.574-2.046c.9.688 2.179 1.228 3.407 1.228 1.163 0 1.786-.491 1.786-1.392 0-.9-.72-1.18-2.277-1.752-1.868-.705-3.227-1.49-3.227-3.423 0-2.146 1.638-3.423 4.013-3.423 1.262 0 2.589.36 3.375.802l-.622 1.9c-.77-.442-1.868-.753-2.753-.753-1.065 0-1.77.475-1.77 1.26 0 .918.918 1.278 2.31 1.786 1.836.671 3.195 1.26 3.195 3.34 0 2.31-1.638 3.62-4.144 3.62-1.426 0-2.835-.425-3.867-1.146M53.964 7.16v5.273h-2.048V7.946c0-1.457-.459-2.145-1.54-2.145-1.114 0-1.835.851-1.835 2.145v4.487h-2.047V7.946c0-1.457-.46-2.145-1.524-2.145-1.147 0-1.835.851-1.835 2.21v4.422h-2.048V4.146h2.048v1.278c.54-.95 1.49-1.458 2.605-1.458 1.36 0 2.244.606 2.605 1.77.54-1.18 1.572-1.77 2.8-1.77 1.852 0 2.819 1.114 2.819 3.194M61.31 9.256V8.7c-2.506.05-3.342.426-3.342 1.327 0 .655.459 1.064 1.294 1.064 1 0 2.048-.556 2.048-1.834m2.048-2.047v5.224h-2.032v-1.146c-.524.753-1.523 1.327-2.8 1.327-1.623 0-2.688-.934-2.688-2.473 0-1.933 1.704-2.653 5.472-2.703v-.163c0-.983-.573-1.605-1.835-1.605-1.114 0-1.982.458-2.588.868l-.475-1.622c.786-.491 1.998-.933 3.424-.933 2.13 0 3.522.982 3.522 3.226M70.836 4.163l-.328 1.965c-.246-.082-.573-.164-.868-.164-1.294 0-1.9.901-1.9 2.555v3.915h-2.032V4.147h2.032v1.326c.475-1.097 1.212-1.507 2.03-1.507.394 0 .754.082 1.066.197M73.102 9.879V5.866h-1.277v-1.72h1.277V1.821l2.048-.262v2.587h2.245v1.72H75.15V9.6c0 .786.36 1.147.983 1.147.54 0 1.081-.246 1.425-.443l.328 1.655c-.508.343-1.31.638-2.244.638-1.59 0-2.54-.884-2.54-2.718M85.207 4.507c0-1.36-.901-1.867-2.146-1.867h-1.294V6.52h1.294c1.245 0 2.146-.704 2.146-2.014m2.31 0c0 1.949-1.376 3.848-3.998 3.848h-1.752v4.078h-2.212V.806h3.964c2.622 0 3.998 1.654 3.998 3.7M94.102 9.256V8.7c-2.507.05-3.342.426-3.342 1.327 0 .655.458 1.064 1.294 1.064 1 0 2.048-.556 2.048-1.834m2.047-2.047v5.224h-2.03v-1.146c-.525.753-1.525 1.327-2.802 1.327-1.622 0-2.687-.934-2.687-2.473 0-1.933 1.704-2.653 5.472-2.703v-.163c0-.983-.574-1.605-1.835-1.605-1.114 0-1.982.458-2.589.868l-.475-1.622c.787-.491 1.999-.933 3.424-.933 2.13 0 3.522.982 3.522 3.226M98.84 9.879V5.866h-1.277v-1.72h1.277V1.821l2.048-.262v2.587h2.245v1.72h-2.245V9.6c0 .786.36 1.147.983 1.147.54 0 1.081-.246 1.425-.443l.328 1.655c-.508.343-1.31.638-2.244.638-1.59 0-2.54-.884-2.54-2.718M112.902 7.16v5.273h-2.047V7.946c0-1.457-.54-2.145-1.688-2.145-1.261 0-2.08.851-2.08 2.21v4.422h-2.048V.118h2.048v5.339c.573-.967 1.605-1.49 2.883-1.49 1.917 0 2.932 1.113 2.932 3.193" transform="translate(5.021 7.457)"/>
		</g>
	</g>
</svg>
